<svg id="Capa_1" data-name="Capa 1" xmlns="http://www.w3.org/2000/svg" viewBox="0 0 380.89 87.34"><defs><style>.cls-1{fill:#959799;}.cls-2{fill:#eb661b;}</style></defs><path class="cls-1" d="M390.05,132.44c-1.59,0-3.18-.06-4.77,0-1,.06-1.4-.23-1.38-1.33.06-5.19,0-10.39,0-15.58a21.92,21.92,0,0,0-.43-5c-.8-3.41-2.68-5.1-6.15-5.39a33.3,33.3,0,0,0-7.19.31c-1,.13-1.23.5-1.23,1.47,0,8,0,16,.05,23.94,0,1.21-.25,1.7-1.53,1.56a26.94,26.94,0,0,0-3.48,0c-.7,0-1-.17-1-.93q0-14.48,0-29c0-.69.2-.94.9-1.08a52.39,52.39,0,0,1,15.19-1.24c6.11.48,10.15,4.66,10.7,11.16,0,.4-.13.87.27,1.2Z" transform="translate(-9.15 -63.64)"/><path class="cls-1" d="M339.8,151c0-3.17,0-6.35,0-9.52,0-.42-.29-1,.38-1.2s.7.57,1,.85c1.72-1.25,3.41-1.3,4.56-.16a5,5,0,0,1,.31,5.75c-1.08,1.53-2.65,1.72-5,.54V151Zm5.67-6.57c0-1.84-.77-3-1.9-3.18a2.21,2.21,0,0,0-2.35,1.58c-.52,1.52-.06,3.43,1,3.91a2.11,2.11,0,0,0,2.4-.31A2.85,2.85,0,0,0,345.47,144.41Z" transform="translate(-9.15 -63.64)"/><path class="cls-1" d="M208.4,133.44A35.37,35.37,0,0,1,195.74,131c-1-.4-1.23-.87-.76-1.82.32-.65.53-1.35.79-2,.59-1.58.59-1.6,2.09-1a25.11,25.11,0,0,0,10.77,2.07,15.27,15.27,0,0,0,5.67-1,5.93,5.93,0,0,0,2.16-9.58,11.46,11.46,0,0,0-4.57-3c-2.55-1-5.15-1.88-7.71-2.86a17.12,17.12,0,0,1-4.81-2.69,10.88,10.88,0,0,1,2.87-18.39,19.92,19.92,0,0,1,6.88-1.48,29.5,29.5,0,0,1,12.22,1.91c1,.39,1.51.83.84,2a10.64,10.64,0,0,0-1,2.37c-.29.93-.62,1.12-1.61.7a19.77,19.77,0,0,0-12.81-1.35c-3.72.93-5.51,3.81-4.59,7.19a5.68,5.68,0,0,0,2.46,3.19,31.1,31.1,0,0,0,6.52,3,54.12,54.12,0,0,1,7.51,3.33c5.31,3,6.76,8.4,5.42,13.45-1.12,4.2-4.34,6.19-8.2,7.39A30.44,30.44,0,0,1,208.4,133.44Z" transform="translate(-9.15 -63.64)"/><path class="cls-1" d="M244.11,133.23c-10.71,0-16.9-5.76-17.74-14.27a18.75,18.75,0,0,1,2.37-11.88c3.35-5.54,9.48-8,16.51-6.8a14.93,14.93,0,0,1,11.81,11.85c1.14,5.81.47,11.29-3.46,16A13.74,13.74,0,0,1,244.11,133.23Zm-2.26-4.95a8.65,8.65,0,0,0,8.52-6,16.5,16.5,0,0,0,0-11.32,9,9,0,0,0-16.88-.19,16.47,16.47,0,0,0,0,11.81A8.59,8.59,0,0,0,241.85,128.28Z" transform="translate(-9.15 -63.64)"/><path class="cls-1" d="M361,116.71c0,5.53-1.74,10.31-6.33,13.68-8,5.84-22.73,3.19-24.68-10.66-.8-5.7.13-11,4.29-15.27,4.44-4.52,10-5.45,15.93-3.75s9.17,6,10.46,11.9A20.09,20.09,0,0,1,361,116.71Zm-6.22-.25a13.52,13.52,0,0,0-.84-5.35c-1.4-3.79-4.11-6-8.19-6.13-3.63-.14-6.59,1.32-8.22,4.66a15,15,0,0,0,.09,14.1c3.08,5.87,11.55,6.14,15.19.64A13.43,13.43,0,0,0,354.77,116.46Z" transform="translate(-9.15 -63.64)"/><path class="cls-2" d="M109.15,111.33c0-6.61,0-13.22,0-19.83,0-1,.21-1.3,1.25-1.29q12.18.08,24.35,0c1,0,1.3.23,1.22,1.21-.11,1.23.39,2.88-.24,3.6s-2.42.27-3.69.27c-5.15,0-10.3,0-15.45,0-1.06,0-1.27.32-1.25,1.29.05,3.39.07,6.79,0,10.17,0,1.14.36,1.31,1.37,1.3,5.24-.05,10.48,0,15.72,0,.93,0,1.35.17,1.24,1.18a11.15,11.15,0,0,0,0,2.45c.12,1.1-.21,1.45-1.39,1.44-5.19-.07-10.39,0-15.59-.06-1.06,0-1.36.24-1.35,1.33.06,5.67,0,11.33,0,17,0,.92-.25,1.18-1.15,1.13a27.31,27.31,0,0,0-3.73,0c-1,.08-1.37-.21-1.36-1.31C109.18,124.54,109.15,117.93,109.15,111.33Z" transform="translate(-9.15 -63.64)"/><path class="cls-1" d="M297.21,116.2c0,4.67,0,9.35,0,14,0,1-.29,1.43-1.29,1.62A52.08,52.08,0,0,1,281.52,133c-6.21-.56-10.35-4.52-11-10.73-.53-4.88-.14-9.77-.25-14.65,0-2,0-4,0-5.92,0-.73.23-1,1-.94,1.28,0,2.58.06,3.86,0,.9,0,1.17.24,1.16,1.15,0,5.1,0,10.2,0,15.31a20.85,20.85,0,0,0,.69,5.72,6.48,6.48,0,0,0,6.41,5.13,45.59,45.59,0,0,0,6.81-.28c1-.09,1.08-.66,1.08-1.49,0-8,0-16,0-24.06,0-1.18.29-1.59,1.48-1.48a23.78,23.78,0,0,0,3.48,0c.92-.06,1.16.28,1.15,1.17C297.19,106.68,297.21,111.44,297.21,116.2Z" transform="translate(-9.15 -63.64)"/><path class="cls-2" d="M161.7,116.24c0,4.72,0,9.44,0,14.15,0,.79-.11,1.21-1,1.39A49.76,49.76,0,0,1,146.25,133c-6.8-.63-10.79-4.64-11.29-11.45-.49-6.64-.09-13.3-.22-19.94,0-.74.31-.84.92-.83,1.33,0,2.67.06,4,0,.85-.05,1.09.22,1.08,1.06,0,3.26,0,6.53,0,9.79s-.25,6.78.38,10.14c.79,4.29,3.05,6.23,7.4,6.36a50.81,50.81,0,0,0,6-.31c1-.09,1.25-.48,1.25-1.46,0-8.07,0-16.13-.06-24.2,0-1.16.31-1.48,1.43-1.38a20.69,20.69,0,0,0,3.34,0c.95-.07,1.24.2,1.23,1.19C161.67,106.71,161.7,111.47,161.7,116.24Z" transform="translate(-9.15 -63.64)"/><path class="cls-1" d="M306.57,114.67c.13,2.48-.21,5.48.22,8.47.5,3.38,2.17,4.87,5.59,5a13.37,13.37,0,0,0,5.91-1c.86-.39,1.21-.09,1.35.75.11.63.27,1.26.42,1.88.44,1.83.44,1.81-1.3,2.37a21.84,21.84,0,0,1-9.77.85c-4.51-.63-7.48-3.67-8.09-8.37a35.33,35.33,0,0,1-.28-4.36c0-9,0-17.94,0-26.9,0-1.06.21-1.56,1.37-1.61a14.72,14.72,0,0,0,3.42-.56c1.11-.31,1.21.14,1.19,1,0,2.45,0,4.9,0,7.34,0,1.06.34,1.27,1.31,1.26,3.35-.05,6.7,0,10,0,1,0,1.44.16,1.31,1.25s.47,2.61-.25,3.34-2.2.22-3.35.24c-2.61,0-5.23.06-7.85,0-1,0-1.24.3-1.21,1.24C306.61,109.26,306.57,111.71,306.57,114.67Z" transform="translate(-9.15 -63.64)"/><path class="cls-2" d="M165.4,106c0-6.22,0-12.44,0-18.66,0-.88.16-1.31,1.12-1.39a32.46,32.46,0,0,0,3.68-.61c.89-.19,1.18,0,1.17,1,0,6,0,12,0,18s0,12.09,0,18.14a15.44,15.44,0,0,0,.06,1.67c.3,2.62,1,3.47,3.62,3.88,1.09.17,1.49.55,1.12,1.62a6.7,6.7,0,0,0-.21,1c-.42,2.59-.42,2.6-3.05,2.17a12.15,12.15,0,0,1-3.81-1.14c-2.93-1.58-3.62-4.33-3.65-7.3C165.35,118.29,165.4,112.16,165.4,106Z" transform="translate(-9.15 -63.64)"/><path class="cls-2" d="M178,106.25c0-6.3,0-12.61,0-18.91,0-.91.2-1.29,1.14-1.38a30.53,30.53,0,0,0,3.67-.61c.9-.19,1.16.07,1.16,1,0,9.18,0,18.36,0,27.54,0,3.26,0,6.52,0,9.78,0,2.87.9,3.91,3.76,4.43.94.16,1.35.47,1,1.48a6.12,6.12,0,0,0-.34,1.89c0,1.43-.71,1.72-1.94,1.49-.8-.15-1.62-.18-2.41-.37-3.94-.93-5.94-3.36-6-7.55-.07-6.26,0-12.52,0-18.79Z" transform="translate(-9.15 -63.64)"/><path class="cls-1" d="M259.4,106c0-6.13.05-12.27,0-18.4,0-1.25.41-1.63,1.51-1.75a30.63,30.63,0,0,0,3.16-.53c1-.2,1.34,0,1.33,1.13q0,18,0,35.91c0,.64,0,1.29,0,1.93.2,2.26,1.14,3.29,3.38,3.72,1.6.32,1.6.32,1.28,2-.06.34-.09.68-.16,1-.41,2.12-.42,2.12-2.64,1.9-5.32-.55-7.82-3.28-7.84-8.62Q259.39,115.19,259.4,106Z" transform="translate(-9.15 -63.64)"/><path class="cls-1" d="M321.77,116.6c0-4.89,0-9.78,0-14.67,0-.87.18-1.24,1.12-1.18,1.29.08,2.58,0,3.87,0,.69,0,1,.16,1,.92q0,14.94,0,29.87c0,.77-.32.93-1,.91-1.28,0-2.58-.07-3.86,0-1,.06-1.12-.35-1.11-1.19C321.79,126.39,321.77,121.49,321.77,116.6Z" transform="translate(-9.15 -63.64)"/><path class="cls-1" d="M253.26,140.81c0-1.1,0-2.16,0-3.22,0-.53.07-.93.74-.93s.72.44.72,1c0,3.13,0,6.25,0,9.38,0,.41.12.85-.57.91s-.63-.49-.79-1a3.56,3.56,0,0,1-2.76,1.17,3.06,3.06,0,0,1-1.91-1,4.69,4.69,0,0,1-.3-5.61C249.45,140,250.87,139.75,253.26,140.81Zm0,3.37a11.2,11.2,0,0,0,0-1.16,1.91,1.91,0,0,0-1.59-1.78,1.84,1.84,0,0,0-2.09.95,3.6,3.6,0,0,0,0,3.78,2,2,0,0,0,3.47-.16A3.28,3.28,0,0,0,253.24,144.18Z" transform="translate(-9.15 -63.64)"/><path class="cls-1" d="M383.09,142.61c0,2.94,1.92,4.63,4.83,4.22.21,0,.41-.1.62-.15.39-.09.78-.19.93.35s-.26.68-.63.78c-2.16.54-4.27.44-5.84-1.3a5.65,5.65,0,0,1-.87-6.26,5,5,0,0,1,4.75-3.15,5.37,5.37,0,0,1,1.91.2c.37.11.8.13.69.71s-.43.65-.94.46a4.61,4.61,0,0,0-1.92-.13C384.45,138.5,383.1,140.14,383.09,142.61Z" transform="translate(-9.15 -63.64)"/><path class="cls-1" d="M277.86,140.14a3.63,3.63,0,0,1,3.63,3.93,3.87,3.87,0,0,1-3.78,4,4,4,0,0,1,.15-8Zm-2.3,4c0,1.72.94,2.94,2.22,2.9s2.23-1.27,2.25-2.93a3.43,3.43,0,0,0-.38-1.73,2,2,0,0,0-1.82-1.19,2,2,0,0,0-1.94,1.21A3.86,3.86,0,0,0,275.56,144.12Z" transform="translate(-9.15 -63.64)"/><path class="cls-1" d="M312.48,144a3.7,3.7,0,1,1-7.37.07,3.7,3.7,0,0,1,3.7-3.92C311.05,140.12,312.47,141.6,312.48,144Zm-5.92.16a3,3,0,0,0,.41,1.68,2,2,0,0,0,3.23.61,3.71,3.71,0,0,0,0-4.79,2.09,2.09,0,0,0-3.18.61A3.21,3.21,0,0,0,306.56,144.15Z" transform="translate(-9.15 -63.64)"/><path class="cls-1" d="M256.32,144a3.69,3.69,0,1,1,7.37.14,3.86,3.86,0,0,1-3.86,4C257.73,148,256.27,146.33,256.32,144Zm5.92.13c0-1.77-.95-3-2.33-2.93s-2.19,1.14-2.25,2.78.93,3,2.17,3a2,2,0,0,0,1.5-.58A3.16,3.16,0,0,0,262.24,144.11Z" transform="translate(-9.15 -63.64)"/><path class="cls-1" d="M326.24,147c.43-.06.85-.1,1.27-.2s.59-.14.68.29a.61.61,0,0,1-.37.73,4.65,4.65,0,0,1-4.5-.57,4.5,4.5,0,0,1-.78-5,3.22,3.22,0,0,1,6.19,1.65c-.15.57-.55.45-.91.45-1.15,0-2.31,0-3.46,0-.85,0-.95.41-.74,1A2.32,2.32,0,0,0,326.24,147Zm-.77-3.65a1.74,1.74,0,0,0,.51,0c.47-.14,1.25.42,1.38-.42a1.64,1.64,0,0,0-1-1.55,1.77,1.77,0,0,0-1.37-.11,1.65,1.65,0,0,0-1.38,1.63c.05.85.94.3,1.44.45A1.2,1.2,0,0,0,325.47,143.3Z" transform="translate(-9.15 -63.64)"/><path class="cls-1" d="M291.76,146.91c-.42.31-.67.54-1,.71a2.51,2.51,0,0,1-4-1.87c-.16-1.61,0-3.25-.08-4.87,0-.51.25-.66.72-.66s.6.35.61.77c0,1.41,0,2.83.09,4.23.08,1,.55,1.76,1.72,1.64A1.8,1.8,0,0,0,291.6,145c.06-1.2,0-2.4,0-3.59,0-.49-.28-1.2.68-1.19s.74.66.75,1.19c0,1.84,0,3.68,0,5.52,0,.39.19.87-.51,1S291.86,147.49,291.76,146.91Z" transform="translate(-9.15 -63.64)"/><path class="cls-1" d="M207.34,145.05c0,.72,0,1.45,0,2.18,0,.89-.84.82-1,.56-.51-.92-.89-.25-1.33,0a2.35,2.35,0,1,1-2-4.21,12.78,12.78,0,0,1,1.84-.49c.37-.1,1,.18,1-.52a1.21,1.21,0,0,0-.91-1.26,2.92,2.92,0,0,0-1.89.08c-.37.14-.8.28-.94-.26s.36-.6.7-.7c2.77-.78,4.51.08,4.52,3v1.67Zm-2.2-1c-1.42,0-2.44.78-2.36,1.74a1.29,1.29,0,0,0,1.35,1.28,2.07,2.07,0,0,0,1.89-2.21C206,144.13,205.71,143.93,205.14,144Z" transform="translate(-9.15 -63.64)"/><path class="cls-1" d="M241,141.24a3,3,0,0,1,3.58-.85c1.26.58,1.49,1.77,1.49,3s0,2.48,0,3.72c0,.43-.06.74-.61.75s-.73-.25-.72-.77c0-1.16,0-2.31,0-3.47-.05-1.59-.66-2.39-1.75-2.39s-1.85.91-1.87,2.43c0,1.07,0,2.14,0,3.22,0,.54,0,1-.77,1s-.69-.47-.69-1c0-1.88,0-3.77,0-5.65,0-.38-.26-.9.39-1.06S240.86,140.55,241,141.24Z" transform="translate(-9.15 -63.64)"/><path class="cls-1" d="M314.08,143.94V141c0-.35,0-.73.46-.75.35,0,.72-.07.77.43.07.72.39.34.64.14a2.77,2.77,0,0,1,3.24-.34,2.85,2.85,0,0,1,1.31,2.87c0,1.24,0,2.48,0,3.73,0,.47,0,.83-.67.83s-.66-.37-.66-.83c0-1.2,0-2.4,0-3.6,0-1.45-.71-2.24-1.79-2.21s-1.79.89-1.82,2.23c0,1.07,0,2.14,0,3.21,0,.48.28,1.18-.68,1.2s-.74-.73-.76-1.26c0-.9,0-1.8,0-2.7Z" transform="translate(-9.15 -63.64)"/><path class="cls-1" d="M237.52,145c0,.73,0,1.46,0,2.19s-.77.89-1,.58c-.5-.83-.82-.27-1.25-.05a2.36,2.36,0,1,1-2-4.21,16.35,16.35,0,0,1,1.86-.48c.33-.09.9.19.93-.37a1.27,1.27,0,0,0-.7-1.28,2.8,2.8,0,0,0-2.25,0c-.24.08-.55.41-.75,0s0-.7.44-.91a3,3,0,0,1,4.66,2.65c0,.64,0,1.28,0,1.92Zm-2.15-1c-1.45,0-2.32.7-2.3,1.74a1.16,1.16,0,0,0,1.29,1.27,2,2,0,0,0,1.85-2.18C236.22,144.17,236,143.92,235.37,144Z" transform="translate(-9.15 -63.64)"/><path class="cls-1" d="M363,140.14c2.08,0,3,.87,3.11,2.68.06,1.49.09,3,.12,4.49,0,1-.81.66-1,.43-.39-.4-.59-.43-1-.14a2.52,2.52,0,0,1-3,0,2.07,2.07,0,0,1-.83-2.15,2.76,2.76,0,0,1,2.28-2.17c.37-.11.76-.13,1.13-.25s1.1.29,1-.54a1.32,1.32,0,0,0-1.08-1.28,3.24,3.24,0,0,0-2,.22c-.22.11-.49.26-.64-.1a.55.55,0,0,1,.22-.77A3.22,3.22,0,0,1,363,140.14Zm1.82,5c0-.56.12-1.11-.78-1.08-1.35.05-2.32.69-2.34,1.67a1.2,1.2,0,0,0,1.21,1.36A1.86,1.86,0,0,0,364.8,145.09Z" transform="translate(-9.15 -63.64)"/><path class="cls-1" d="M350.69,140.14c2.05,0,3,.88,3,2.8,0,1.41,0,2.83.11,4.23.08.94-.71.89-.91.64-.65-.8-1.08-.18-1.6,0a2.37,2.37,0,0,1-2.93-.58,2.14,2.14,0,0,1-.11-2.74c.71-1.07,1.9-1.22,3-1.48.38-.09,1.1.3,1-.53a1.31,1.31,0,0,0-1.07-1.29,3.18,3.18,0,0,0-2,.22c-.22.1-.49.27-.64-.09a.55.55,0,0,1,.21-.78A3.38,3.38,0,0,1,350.69,140.14Zm1.74,4.89c0-.5.13-1-.71-1-1.38,0-2.43.7-2.4,1.73a1.19,1.19,0,0,0,1.26,1.3A1.87,1.87,0,0,0,352.43,145Z" transform="translate(-9.15 -63.64)"/><path class="cls-1" d="M195.24,142.61c0-1.46,0-2.91,0-4.37,0-.74.24-1,1-.94,1.29,0,2.57,0,3.86,0,.37,0,.81-.08.83.52s-.4.56-.79.56c-.86,0-1.72,0-2.57,0s-.94.29-1,1c-.1,2.58-.13,2.58,2.4,2.58h.9c.35,0,.71,0,.73.49s-.37.59-.78.59c-.69,0-1.37,0-2.06,0-.87-.07-1.25.23-1.19,1.15s0,2,0,3c0,.44-.08.73-.62.74s-.75-.27-.71-.78a.57.57,0,0,0,0-.13Z" transform="translate(-9.15 -63.64)"/><path class="cls-1" d="M373,143.2c0-1.07-.07-2.15,0-3.21.11-1.21-.25-1.79-1.54-1.59a7.36,7.36,0,0,1-1.15,0c-.36,0-.56-.15-.57-.54s.19-.54.55-.54h6.56c.33,0,.57.1.59.5s-.25.55-.65.59c-.79.09-1.92-.4-2.3.25s-.16,1.74-.17,2.63c0,1.89,0,3.77,0,5.66,0,.47.08,1-.68.94s-.65-.5-.65-1C373,145.68,373,144.44,373,143.2Z" transform="translate(-9.15 -63.64)"/><path class="cls-1" d="M229.56,148.09a1.94,1.94,0,0,1-2.09-2c-.05-1.07,0-2.14,0-3.21,0-.67.28-1.51-.89-1.57-.28,0-.33-.36-.31-.63s.16-.43.4-.41c.85.05.86-.51.8-1.09s.36-.94.9-.95.42.55.39.86c-.08.87.22,1.27,1.14,1.16.42,0,.9-.06.88.6s-.54.58-.93.54c-.86-.09-1.13.27-1.08,1.1s0,1.88,0,2.82.14,1.68,1.34,1.59c.47,0,.62.31.54.66C230.51,148.15,229.94,148,229.56,148.09Z" transform="translate(-9.15 -63.64)"/><path class="cls-1" d="M271.17,140.14a6.68,6.68,0,0,1,.79.11c.41.11.71.33.55.83s-.5.29-.84.21a3.77,3.77,0,0,0-1-.1.93.93,0,0,0-1,.69,1,1,0,0,0,.5,1.2c.45.24.93.43,1.39.65A2.14,2.14,0,0,1,273,146a2.26,2.26,0,0,1-1.92,2,4.05,4.05,0,0,1-2.39-.15.59.59,0,0,1-.46-.78c.14-.48.44-.41.8-.27a3.41,3.41,0,0,0,1.52.17c.51-.05.92-.21,1-.79a1.11,1.11,0,0,0-.5-1.22,10.24,10.24,0,0,0-1.15-.57c-1.07-.48-1.82-1.2-1.59-2.46S269.54,140.13,271.17,140.14Z" transform="translate(-9.15 -63.64)"/><path class="cls-1" d="M332.91,140.14a4,4,0,0,1,.78.11c.37.1.79.21.67.75s-.52.36-.9.28a3.65,3.65,0,0,0-1.14-.06.87.87,0,0,0-.82.7.91.91,0,0,0,.36,1,12.47,12.47,0,0,0,1.37.68,2.22,2.22,0,0,1,1.55,2.27,2.32,2.32,0,0,1-2.09,2.11,4.13,4.13,0,0,1-2.26-.22.58.58,0,0,1-.38-.82c.13-.4.4-.36.71-.23a3.24,3.24,0,0,0,1.51.19c.5,0,1-.16,1.09-.72a1.12,1.12,0,0,0-.54-1.32,12.29,12.29,0,0,0-1.15-.57c-1-.46-1.77-1.11-1.58-2.34S331.31,140.14,332.91,140.14Z" transform="translate(-9.15 -63.64)"/><path class="cls-1" d="M208.89,144.2a3.92,3.92,0,0,1,5-4c.35.08.94,0,.76.74s-.58.47-1,.36a2.45,2.45,0,0,0-2.84,1,3.09,3.09,0,0,0-.13,3.4c.71,1.25,1.9,1.36,3.15,1.11.43-.09.72-.18.85.37s-.22.57-.55.69A3.78,3.78,0,0,1,208.89,144.2Z" transform="translate(-9.15 -63.64)"/><path class="cls-1" d="M298.74,140.15c.13,0,.26,0,.38,0,.53.09,1.38-.1,1.31.74s-.82.4-1.3.33a2.71,2.71,0,0,0-3.1,2.68,2.65,2.65,0,0,0,2.76,3,3.29,3.29,0,0,0,.89-.1c.38-.12.64-.17.78.32s-.11.63-.47.73a3.9,3.9,0,0,1-5.05-5.21,3.6,3.6,0,0,1,3.41-2.48Z" transform="translate(-9.15 -63.64)"/><path class="cls-1" d="M380,142.62c0,1.49,0,3,0,4.48,0,.51-.11.8-.7.8s-.75-.24-.75-.77c0-3,0-6.06,0-9.09,0-.55.24-.74.78-.74s.67.37.67.84C380,139.63,380,141.13,380,142.62Z" transform="translate(-9.15 -63.64)"/><path class="cls-1" d="M357.15,141.41c.57-.59,1-1.19,1.72-1.25.35,0,.73-.06.74.45s.12.76-.49.83c-1.49.17-1.79,1.25-1.82,2.5,0,.94,0,1.88,0,2.82,0,.52.19,1.16-.75,1.14s-.67-.71-.68-1.2c0-1.8,0-3.59,0-5.39,0-.41-.27-1,.51-1.08S357,140.81,357.15,141.41Z" transform="translate(-9.15 -63.64)"/><path class="cls-1" d="M283.11,142.32v-4.63c0-.5,0-1,.7-.93s.62.46.62.89v9.4c0,.46,0,.84-.65.85s-.68-.34-.67-.82C283.12,145.49,283.11,143.91,283.11,142.32Z" transform="translate(-9.15 -63.64)"/><path class="cls-1" d="M221.27,142.35c0,1.55,0,3.09,0,4.64,0,.5,0,.94-.71.91s-.61-.45-.61-.89q0-4.69,0-9.39c0-.46,0-.85.66-.86s.67.36.67.83C221.26,139.18,221.27,140.77,221.27,142.35Z" transform="translate(-9.15 -63.64)"/><path class="cls-1" d="M224.89,144.1c0,1,0,2.05,0,3.07,0,.46-.11.72-.64.72s-.69-.17-.69-.67c0-2.09,0-4.17,0-6.26,0-.46.12-.72.64-.74s.7.33.69.81C224.88,142.06,224.89,143.08,224.89,144.1Z" transform="translate(-9.15 -63.64)"/><path class="cls-1" d="M217.66,144c0,1,0,2,0,2.94,0,.47.06.95-.69.93s-.64-.4-.64-.85q0-3,0-6c0-.5.09-.82.69-.82s.64.41.64.86C217.66,142.06,217.66,143,217.66,144Z" transform="translate(-9.15 -63.64)"/><path class="cls-1" d="M303.47,144c0,1,0,2,0,2.94,0,.49,0,.95-.69.93s-.64-.41-.64-.86c0-2,0-4,0-6,0-.5.11-.81.7-.81s.63.42.63.87C303.46,142.07,303.47,143.05,303.47,144Z" transform="translate(-9.15 -63.64)"/><path class="cls-1" d="M217.85,138.09a.84.84,0,0,1-.9.88.83.83,0,1,1,.09-1.65A.78.78,0,0,1,217.85,138.09Z" transform="translate(-9.15 -63.64)"/><path class="cls-1" d="M225.08,138a.86.86,0,0,1-.9.94.75.75,0,0,1-.8-.8.77.77,0,0,1,.87-.85A.8.8,0,0,1,225.08,138Z" transform="translate(-9.15 -63.64)"/><path class="cls-1" d="M302.79,139a.8.8,0,0,1-.83-.75.75.75,0,0,1,.78-.92.77.77,0,0,1,.88.84C303.65,138.66,303.28,138.89,302.79,139Z" transform="translate(-9.15 -63.64)"/><path class="cls-2" d="M98.24,94.93Q77.09,79.68,56,64.32a2.36,2.36,0,0,0-3.28,0Q31.66,79.64,10.5,94.89a2.64,2.64,0,0,0-1.1,3.48q8.05,24.51,16,49.09a2.91,2.91,0,0,0,3.24,2.36c8.57-.08,17.15,0,25.72,0s17.28,0,25.92,0a2.7,2.7,0,0,0,3-2.12q8-24.75,16.1-49.45A2.56,2.56,0,0,0,98.24,94.93ZM84.71,87.31l11.86,8.58-.23.39c-5-1.33-10.09-2.64-15.11-4A1.55,1.55,0,0,1,80.6,92s0-.08,0-.12a3.19,3.19,0,0,0-.41-1.57,1.86,1.86,0,0,1,.35-.51c.88-.87,1.88-1.61,2.79-2.46A.93.93,0,0,1,84.71,87.31Zm-6.55-4.72c1.64,1.19,3,2.2,4.43,3.19.48.34.57.66.09,1.07-1,.84-1.91,1.76-3,2.51l-.16.1a3.28,3.28,0,0,0-1.37-.75v0C78.09,86.78,78.16,84.87,78.16,82.59ZM77,96c-.8,10.39-1.59,20.66-2.39,30.93,0,.21,0,.43,0,.63a3.42,3.42,0,0,0-.46,0,3.29,3.29,0,0,0-1.17.22c-.06-.08-.11-.16-.18-.24q-6.14-8-12.26-16a1.9,1.9,0,0,1-.29-.88,3.22,3.22,0,0,0,.69-2,3.26,3.26,0,0,0-.27-1.28,2.22,2.22,0,0,1,.5-.83C65.61,102.69,70,98.82,74.5,95c.25-.21.47-.53.72-.78a3.23,3.23,0,0,0,1.9.82A3.76,3.76,0,0,0,77,96ZM49.92,137a3.2,3.2,0,0,0-1.66-2.13c2.92-7.46,5.8-14.94,8.71-22.4a2.43,2.43,0,0,1,.34-.62l.4,0a3.23,3.23,0,0,0,1.63-.44,1.75,1.75,0,0,1,.42.4c4.2,5.41,8.36,10.86,12.53,16.29a3.23,3.23,0,0,0-1.37,2.64,3.45,3.45,0,0,0,0,.57l-.13,0C63.88,133.17,57,135.1,50,137Zm-5.21-2.26q-7.3-11.7-14.61-23.42a5.07,5.07,0,0,1-.38-.61,3.18,3.18,0,0,0,1-2,5.72,5.72,0,0,1,.83,0c3.73,0,18.65.41,22.38.44a2.51,2.51,0,0,1,.55.06,3.23,3.23,0,0,0,1.84,2.43,3,3,0,0,1-.19.74q-4.29,11.13-8.61,22.24l0,0a3.76,3.76,0,0,0-.76-.09,3.18,3.18,0,0,0-1.85.59ZM56.58,66.91c6.45,4.67,12.89,9.37,19.36,14a2.59,2.59,0,0,1,1.31,2.4c-.06,1.23,0,2.48.09,3.72a6.14,6.14,0,0,1,0,1.55,3.22,3.22,0,0,0-2.55,5.12c-.36.36-.8.68-1.19,1L60.69,105.93c-.21.17-.39.39-.61.54a3.28,3.28,0,0,0-1.84-1c0-.15,0-.32,0-.49q-1.64-18.81-3.29-37.63c0-.38,0-.77-.08-1.28A2.76,2.76,0,0,1,56.58,66.91ZM34.74,79.4C40.58,75.22,46.38,71,52.19,66.77c1.67-1.21,1.75-1.19,1.94.89q1.27,14,2.49,28.05.42,4.85.84,9.73a3.1,3.1,0,0,0-1.14.3l-.08-.09C49,97.59,41.79,89.5,34.52,81.47,33.67,80.53,33.75,80.11,34.74,79.4Zm-2.16,1.66c.84-.26,1.07.6,1.46,1Q44.6,93.81,55.11,105.58c.17.19.4.35.6.54a3.22,3.22,0,0,0-1.22,2.2c-.19,0-.39,0-.6,0-3.66,0-18.45-.43-22.17-.45a2.44,2.44,0,0,1-1-.23,3.21,3.21,0,0,0-2-2.33,2.32,2.32,0,0,1-.07-.94q1.53-10.75,3.1-21.49C31.83,82.2,31.7,81.34,32.58,81.06Zm-1.79,1.26a66,66,0,0,1-1,8.49c-.55,4.34-1.24,8.65-1.85,13a5.18,5.18,0,0,1-.34,1.31h0a3.2,3.2,0,0,0-2.27.94,5.28,5.28,0,0,1-1.1-.57L10.82,96.75ZM10.87,98.24l.38-.26c3.77,2.44,7.38,5.18,11.35,7.21a4.53,4.53,0,0,1,2,1.94,3.15,3.15,0,0,0-.23,1.19,3.23,3.23,0,0,0,2,3c-1.73,5.67-3.46,11.34-5.6,17Q15.78,113.29,10.87,98.24Zm15.71,48.3c-1.61-5.1-3.28-10.17-4.93-15.25-.1-.31-.17-.63-.26-1,.12-.5.23-1,.38-1.51,1.68-5.55,3.35-11.1,5.08-16.64.06-.2.09-.45.14-.68a3.55,3.55,0,0,0,.57,0,3.3,3.3,0,0,0,1.53-.38c.16.23.28.51.43.75Q36.75,123.44,44,135a3.5,3.5,0,0,1,.33.71,3.26,3.26,0,0,0-.73,2.05,3.05,3.05,0,0,0,.23,1.17,3.49,3.49,0,0,1-1.19,1c-4.7,2.43-9.42,4.82-14.08,7.32C27.4,147.85,27,147.74,26.58,146.54Zm1.75,1.72c1.9-1,3.29-1.75,4.7-2.48,3.3-1.71,6.62-3.41,9.91-5.15a2.6,2.6,0,0,1,1.7-.47,3.2,3.2,0,0,0,3.74.39,8.59,8.59,0,0,1,2.72,1.8c2.45,1.85,4.88,3.72,7.74,5.91Zm38.89.07c-1-.06-2.09,0-3.61,0-2.39.71-4.5-.67-6.59-2.39-2.35-2-4.86-3.73-7.29-5.6-.18-.14-.39-.26-.56-.41a3.24,3.24,0,0,0,.84-2.13l.2-.06c7-1.89,14-3.8,21-5.68a3.25,3.25,0,0,0,2,1.81h0c-1.48,4.51-3,9-4.54,13.49A1.23,1.23,0,0,1,67.22,148.33Zm19.86-17.45c-1.71,5.25-3.39,10.51-5.1,15.77-.3.9-.82,1.66-1.92,1.66H69.15c1.66-4.9,3.23-9.56,4.81-14.23l0-.1h.16a3.23,3.23,0,0,0,3.22-3,5.82,5.82,0,0,1,2.76-.63c2-.27,4-.42,6-.71C87.27,129.54,87.39,130,87.08,130.88ZM97.35,99.44Q94,109.75,90.6,120c-.81,2.47-1.67,4.94-2.41,7.43a1.63,1.63,0,0,1-1.59,1.38c-2.72.29-5.44.7-8.17,1a2.56,2.56,0,0,1-1.25-.17,3.25,3.25,0,0,0-1.59-1.77,3.26,3.26,0,0,1-.15-1.12l2.42-31.28A1.58,1.58,0,0,1,78,95a3.2,3.2,0,0,0,2.33-1.87,1.73,1.73,0,0,1,.87,0c5.12,1.32,10.21,2.74,15.34,4C98.28,97.53,97.65,98.51,97.35,99.44Z" transform="translate(-9.15 -63.64)"/></svg>