<?xml version="1.0" encoding="UTF-8"?>
<svg id="Capa_2" data-name="Capa 2" xmlns="http://www.w3.org/2000/svg" viewBox="0 0 51.97 50.03">
  <defs>
    <style>
      .cls-1 {
        fill: #eb661b;
      }
    </style>
  </defs>
  <g id="Capa_1-2" data-name="Capa 1">
    <path class="cls-1" d="m25.99,1c1.1,0,2.16.34,3.06.99l19.79,14.38c1.83,1.33,2.59,3.66,1.89,5.81l-7.56,23.26c-.7,2.15-2.68,3.59-4.94,3.59H13.76c-2.26,0-4.25-1.44-4.94-3.59L1.25,22.18c-.7-2.15.06-4.48,1.89-5.81L22.93,1.99c.89-.65,1.95-.99,3.06-.99m0-1c-1.28,0-2.56.39-3.64,1.18L2.56,15.56c-2.17,1.58-3.08,4.38-2.25,6.93l7.56,23.26c.83,2.55,3.21,4.28,5.89,4.28h24.46c2.68,0,5.06-1.73,5.89-4.28l7.56-23.26c.83-2.55-.08-5.35-2.25-6.93L29.63,1.18c-1.09-.79-2.36-1.18-3.64-1.18h0Z"/>
  </g>
</svg>